# xmcd CD database file
#
# Track frame offsets:
#	150
#	18233
#	29904
#	49258
#	70967
#	88176
#	103073
#	120447
#	137143
#	155871
#	169577
#	191083
#	207896
#
# Disc length: 3006 seconds
#
# Revision: 0
# Processed by: cddbd v1.5.1PL2 Copyright (c) Steve Scherf et al.
# Submitted via: CDex 1.51
#
DISCID=be0bbc0d
DTITLE=Michael Bublé - It's time
DYEAR=1900
DGENRE=Blues
TTITLE0=Michael Bublé - Feeling good
TTITLE1=Michael Bublé - A foggy day
TTITLE2=Michael Bublé - You don't now me
TTITLE3=Michael Bublé - Quando, quando, quando
TTITLE4=Michael Bublé - Home
TTITLE5=Michael Bublé - Can't buy me love
TTITLE6=Michael Bublé - The more i see you
TTITLE7=Michael Bublé - Save the last dance for me
TTITLE8=Michael Bublé - Try a little tenderness
TTITLE9=Michael Bublé - How swet it is
TTITLE10=Michael Bublé - Song for you
TTITLE11=Michael Bublé - I've got you under my skin
TTITLE12=Michael Bublé - You and I
EXTD=
EXTT0=
EXTT1=
EXTT2=
EXTT3=
EXTT4=
EXTT5=
EXTT6=
EXTT7=
EXTT8=
EXTT9=
EXTT10=
EXTT11=
EXTT12=
PLAYORDER=
